<svg width="710" height="681" viewBox="0 0 710 681" fill="none" xmlns="http://www.w3.org/2000/svg">
<path d="M206.632 31.8146C222.383 22.881 239.869 24.3252 258.325 33.9603C276.719 43.5747 296.228 61.3801 316.253 85.4987C356.344 133.715 398.954 207.474 439.623 292.457C480.313 377.46 509.173 459.018 521.374 523.059C527.464 555.059 529.425 582.789 526.556 604.39C523.686 625.971 515.986 641.754 502.464 649.43C486.485 658.487 468.896 657.125 450.399 647.511C431.943 637.917 412.476 620.091 392.492 595.952C352.504 547.673 310.142 473.77 269.473 388.808C228.783 303.825 198.89 222.845 186.173 159.113C179.815 127.258 177.73 99.6109 180.806 77.8649C183.861 56.1395 192.119 40.088 206.652 31.8352L206.632 31.8146ZM257.024 36.4155C239.415 27.2137 223.209 25.9345 208.696 33.8365L208.015 34.2285C194.534 41.8623 186.545 56.9236 183.551 78.2157C180.558 99.5078 182.581 126.804 188.898 158.536C201.553 221.958 231.363 302.69 271.991 387.57C312.64 472.47 354.878 546.126 394.66 594.157C414.54 618.172 433.739 635.689 451.7 645.014C469.619 654.319 486.176 655.454 501.101 646.995L501.679 646.665C513.736 639.506 521.044 624.919 523.81 604.019C526.618 582.83 524.719 555.451 518.649 523.575C506.51 459.864 477.753 378.533 437.125 293.674C396.476 208.774 354.011 135.242 314.126 87.2937C294.184 63.2988 274.964 45.8237 257.045 36.4568L257.024 36.4155Z" fill="black"/>
<path d="M706.839 340.426C706.839 154.017 549.282 2.78531 354.834 2.78531C160.365 2.78531 2.82825 153.996 2.82825 340.426C2.82825 526.835 160.385 678.066 354.834 678.066C549.282 678.066 706.839 526.855 706.839 340.426ZM709.626 340.426C709.626 528.485 550.727 680.852 354.813 680.852C158.899 680.852 0 528.485 0 340.426C0 152.366 158.899 0 354.813 0C550.706 0 709.626 152.366 709.626 340.426Z" fill="black"/>
<path d="M500.036 647.137C500.717 646.786 501.564 647.054 501.915 647.735C502.266 648.416 501.997 649.262 501.316 649.613C497.91 651.366 494.421 652.996 490.87 654.544C487.319 656.07 483.727 657.494 480.135 658.794C479.412 659.062 478.607 658.67 478.359 657.948C478.091 657.226 478.483 656.421 479.206 656.174C482.757 654.894 486.287 653.512 489.776 651.985C493.265 650.479 496.712 648.849 500.077 647.137H500.036ZM427.884 667.892C427.843 667.129 428.421 666.469 429.185 666.407C436.782 665.932 444.296 664.983 451.749 663.601C452.513 663.457 453.235 663.952 453.38 664.715C453.524 665.479 453.029 666.201 452.265 666.345C444.709 667.769 437.071 668.718 429.371 669.192C428.607 669.234 427.946 668.656 427.884 667.892ZM541.717 617.757C542.274 617.221 543.162 617.262 543.699 617.819C544.235 618.376 544.194 619.263 543.637 619.8C538.021 625.081 532.097 629.992 525.883 634.531C525.263 634.985 524.396 634.84 523.942 634.221C523.488 633.602 523.632 632.736 524.252 632.282C530.362 627.825 536.205 622.977 541.758 617.778L541.717 617.757ZM376.583 664.199C376.728 663.436 377.45 662.941 378.214 663.085C385.749 664.509 393.284 665.52 400.778 666.139C401.542 666.201 402.12 666.881 402.058 667.645C401.996 668.408 401.315 668.986 400.551 668.924C392.954 668.305 385.316 667.273 377.698 665.829C376.934 665.685 376.439 664.963 376.583 664.199ZM574.19 578.33C574.603 577.69 575.47 577.484 576.11 577.896C576.75 578.309 576.956 579.176 576.543 579.815C572.373 586.355 567.914 592.627 563.145 598.59C562.671 599.188 561.783 599.292 561.184 598.817C560.586 598.342 560.482 597.455 560.957 596.857C565.643 590.977 570.061 584.787 574.17 578.33H574.19ZM327.388 648.994C327.677 648.292 328.503 647.941 329.205 648.251C336.306 651.222 343.449 653.842 350.613 656.112C351.356 656.339 351.748 657.123 351.521 657.865C351.294 658.608 350.509 659 349.766 658.773C342.52 656.483 335.315 653.822 328.131 650.83C327.429 650.541 327.078 649.716 327.388 649.014V648.994ZM596.899 532.465C597.167 531.743 597.972 531.371 598.695 531.64C599.417 531.908 599.789 532.712 599.521 533.435C596.795 540.718 593.781 547.794 590.499 554.644C590.169 555.346 589.343 555.635 588.641 555.304C587.939 554.974 587.65 554.128 587.98 553.448C591.222 546.68 594.194 539.686 596.919 532.465H596.899ZM281.929 624.834C282.342 624.194 283.209 623.988 283.849 624.401C290.331 628.527 296.896 632.385 303.503 635.954C304.184 636.326 304.431 637.172 304.06 637.852C303.688 638.533 302.842 638.781 302.161 638.41C295.492 634.82 288.886 630.92 282.342 626.753C281.702 626.34 281.496 625.473 281.909 624.834H281.929ZM610.565 483.113C610.71 482.35 611.432 481.855 612.196 481.999C612.96 482.144 613.456 482.866 613.311 483.629C611.866 491.242 610.194 498.732 608.233 506.056C608.026 506.799 607.262 507.253 606.519 507.046C605.776 506.84 605.322 506.077 605.528 505.334C607.448 498.092 609.12 490.665 610.545 483.113H610.565ZM240.806 593.783C241.301 593.205 242.189 593.143 242.767 593.638C248.568 598.693 254.493 603.5 260.459 608.06C261.078 608.535 261.182 609.401 260.728 610.02C260.253 610.639 259.386 610.742 258.766 610.288C252.738 605.687 246.793 600.839 240.93 595.743C240.352 595.248 240.29 594.36 240.785 593.783H240.806ZM616.242 432.132C616.263 431.369 616.924 430.77 617.688 430.791C618.451 430.812 619.05 431.472 619.03 432.235C618.74 439.993 618.204 447.647 617.419 455.178C617.337 455.941 616.655 456.498 615.892 456.416C615.128 456.333 614.57 455.652 614.653 454.889C615.417 447.4 615.953 439.807 616.242 432.112V432.132ZM204.389 557.368C204.967 556.852 205.855 556.914 206.351 557.491C211.45 563.248 216.652 568.798 221.937 574.141C222.474 574.698 222.474 575.565 221.937 576.122C221.38 576.658 220.512 576.658 219.955 576.122C214.608 570.737 209.385 565.146 204.245 559.369C203.729 558.791 203.791 557.904 204.369 557.409L204.389 557.368ZM614.797 380.841C614.735 380.078 615.293 379.397 616.057 379.315C616.82 379.253 617.502 379.81 617.584 380.573C618.286 388.269 618.782 395.903 619.05 403.474C619.071 404.238 618.472 404.898 617.708 404.919C616.944 404.939 616.284 404.341 616.263 403.578C615.995 396.068 615.499 388.475 614.797 380.821V380.841ZM172.762 516.682C173.402 516.248 174.269 516.393 174.703 517.032C179.079 523.346 183.559 529.494 188.184 535.477C188.658 536.096 188.534 536.963 187.936 537.437C187.316 537.912 186.45 537.788 185.975 537.19C181.33 531.186 176.809 524.996 172.411 518.642C171.978 518.002 172.122 517.135 172.762 516.702V516.682ZM606.973 330.087C606.808 329.344 607.283 328.601 608.047 328.436C608.81 328.271 609.533 328.746 609.698 329.509C611.329 337.061 612.733 344.591 613.951 352.081C614.075 352.844 613.559 353.566 612.795 353.669C612.031 353.793 611.308 353.277 611.185 352.514C609.987 345.066 608.583 337.576 606.952 330.087H606.973ZM146.028 472.633C146.709 472.261 147.556 472.529 147.907 473.21C151.54 479.977 155.297 486.6 159.199 493.058C159.591 493.718 159.385 494.585 158.724 494.977C158.064 495.369 157.197 495.162 156.804 494.502C152.882 488.003 149.104 481.339 145.45 474.531C145.078 473.85 145.347 473.004 146.028 472.653V472.633ZM594.215 278.817C594.938 278.569 595.743 278.961 595.99 279.683C598.447 287.008 600.718 294.332 602.782 301.636C602.989 302.378 602.555 303.142 601.812 303.348C601.069 303.554 600.305 303.121 600.099 302.378C598.055 295.116 595.805 287.833 593.348 280.55C593.1 279.828 593.493 279.023 594.236 278.775L594.215 278.817ZM127.944 438.322C126.416 434.794 124.93 431.245 123.505 427.696C123.216 426.974 123.567 426.169 124.269 425.881C124.992 425.592 125.797 425.943 126.086 426.644C127.51 430.172 128.997 433.679 130.504 437.208C132.031 440.715 133.579 444.202 135.169 447.647C135.499 448.349 135.169 449.174 134.488 449.504C133.786 449.834 132.96 449.504 132.63 448.823C131.02 445.357 129.451 441.85 127.923 438.322H127.944ZM579 243.247C577.473 239.74 575.924 236.253 574.335 232.808C574.004 232.106 574.335 231.281 575.016 230.951C575.697 230.621 576.544 230.951 576.874 231.632C578.484 235.098 580.053 238.605 581.581 242.133C583.108 245.661 584.595 249.21 586.019 252.759C586.308 253.481 585.957 254.285 585.256 254.574C584.533 254.863 583.728 254.512 583.439 253.811C582.014 250.283 580.528 246.775 579.021 243.247H579ZM107.692 377.107C108.435 376.901 109.199 377.334 109.405 378.077C111.449 385.339 113.699 392.622 116.156 399.905C116.404 400.627 116.011 401.432 115.268 401.68C114.546 401.927 113.74 401.535 113.493 400.792C111.036 393.468 108.765 386.144 106.701 378.84C106.494 378.097 106.928 377.334 107.671 377.128L107.692 377.107ZM550.759 185.499C551.419 185.107 552.287 185.313 552.679 185.973C556.601 192.472 560.379 199.136 564.033 205.945C564.405 206.626 564.136 207.472 563.455 207.843C562.774 208.214 561.927 207.946 561.556 207.265C557.922 200.498 554.165 193.875 550.263 187.418C549.871 186.757 550.078 185.891 550.738 185.499H550.759ZM95.5527 328.374C95.4289 327.611 95.9451 326.889 96.7089 326.786C97.4728 326.662 98.1952 327.178 98.3191 327.941C99.5165 335.389 100.92 342.858 102.551 350.368C102.716 351.111 102.242 351.854 101.478 352.019C100.735 352.184 99.9912 351.709 99.8261 350.946C98.1952 343.394 96.7914 335.864 95.5734 328.374H95.5527ZM521.588 143.038C522.208 142.564 523.075 142.688 523.55 143.286C528.195 149.29 532.716 155.479 537.113 161.834C537.546 162.474 537.402 163.34 536.762 163.773C536.122 164.207 535.255 164.062 534.821 163.423C530.445 157.109 525.965 150.961 521.361 144.978C520.887 144.359 521.01 143.492 521.609 143.018L521.588 143.038ZM90.4536 276.98C90.433 276.217 91.0317 275.557 91.7956 275.536C92.5594 275.516 93.2199 276.114 93.2406 276.877C93.5089 284.387 94.0045 291.98 94.7064 299.634C94.7683 300.398 94.2109 301.078 93.4471 301.161C92.6832 301.223 92.002 300.666 91.9194 299.902C91.1969 292.207 90.722 284.573 90.4536 277.001V276.98ZM487.567 104.374C488.124 103.838 488.991 103.838 489.548 104.374C494.895 109.759 500.119 115.35 505.259 121.127C505.775 121.705 505.713 122.592 505.135 123.087C504.557 123.603 503.669 123.541 503.174 122.964C498.075 117.207 492.872 111.657 487.587 106.314C487.051 105.757 487.051 104.89 487.587 104.333L487.567 104.374ZM92.0845 225.277C92.1671 224.514 92.8484 223.957 93.6123 224.039C94.3761 224.122 94.9335 224.802 94.8509 225.566C94.087 233.055 93.5503 240.648 93.2612 248.343C93.2406 249.107 92.5799 249.705 91.8161 249.685C91.0523 249.664 90.4537 249.004 90.4743 248.24C90.7633 240.483 91.3 232.828 92.0845 225.298V225.277ZM448.756 70.4349C449.23 69.816 450.097 69.7128 450.717 70.1667C456.745 74.7676 462.69 79.6161 468.553 84.7121C469.131 85.2073 469.193 86.0945 468.698 86.6722C468.182 87.2499 467.315 87.3117 466.737 86.8166C460.915 81.7618 455.011 76.9546 449.045 72.3949C448.425 71.9204 448.322 71.0539 448.776 70.4349H448.756ZM101.251 174.42C101.457 173.677 102.221 173.223 102.964 173.429C103.707 173.635 104.161 174.399 103.955 175.142C102.035 182.383 100.363 189.811 98.9384 197.362C98.7939 198.126 98.0714 198.621 97.3076 198.476C96.5437 198.332 96.0483 197.61 96.1928 196.846C97.6379 189.233 99.3307 181.744 101.271 174.42H101.251ZM405.444 42.6025C405.815 41.9216 406.662 41.6741 407.343 42.0455C414.011 45.6354 420.617 49.5348 427.162 53.7024C427.802 54.1151 428.008 54.9816 427.595 55.6212C427.182 56.2608 426.315 56.4671 425.675 56.0545C419.193 51.9281 412.628 48.07 406.022 44.5006C405.341 44.1293 405.093 43.2833 405.465 42.6025H405.444ZM119.025 125.811C119.356 125.109 120.181 124.82 120.883 125.151C121.585 125.481 121.874 126.306 121.544 127.007C118.303 133.775 115.33 140.769 112.605 147.99C112.337 148.712 111.531 149.084 110.809 148.815C110.086 148.547 109.715 147.743 109.983 147.02C112.708 139.737 115.722 132.661 119.005 125.811H119.025ZM357.962 22.6102C358.189 21.8675 358.974 21.4754 359.717 21.7024C366.963 23.9925 374.168 26.6541 381.352 29.6457C382.054 29.9345 382.405 30.7598 382.095 31.4613C381.806 32.1628 380.98 32.5135 380.279 32.204C373.177 29.233 366.034 26.6128 358.87 24.3433C358.127 24.1163 357.735 23.3324 357.962 22.5896V22.6102ZM146.358 81.8649C146.833 81.2666 147.721 81.1635 148.32 81.638C148.918 82.1125 149.021 82.9997 148.547 83.598C143.86 89.4781 139.442 95.6677 135.334 102.125C134.921 102.765 134.054 102.971 133.414 102.559C132.774 102.146 132.568 101.28 132.981 100.64C137.151 94.0996 141.61 87.8275 146.379 81.8649H146.358ZM307.445 12.8307C307.507 12.0673 308.189 11.4897 308.953 11.5516C316.55 12.1705 324.188 13.2021 331.806 14.6463C332.57 14.7908 333.065 15.5129 332.921 16.2763C332.776 17.0396 332.053 17.5348 331.29 17.3903C323.754 15.9667 316.219 14.9352 308.725 14.3369C307.962 14.275 307.384 13.5941 307.445 12.8307ZM183.642 45.9655C184.261 45.5116 185.128 45.656 185.582 46.275C186.037 46.8939 185.892 47.7605 185.273 48.2144C179.162 52.6708 173.32 57.5193 167.766 62.7186C167.209 63.255 166.321 63.2137 165.785 62.6567C165.248 62.0996 165.289 61.2124 165.847 60.676C171.462 55.3943 177.387 50.4838 183.601 45.9448L183.642 45.9655ZM256.124 15.7605C255.979 14.9971 256.475 14.275 257.239 14.1305C264.794 12.7069 272.433 11.7579 280.133 11.2833C280.897 11.2421 281.558 11.8198 281.62 12.5831C281.661 13.3465 281.083 14.0067 280.319 14.0686C272.722 14.5432 265.207 15.4716 257.755 16.8745C256.991 17.019 256.268 16.5239 256.124 15.7605ZM218.654 25.932C222.205 24.4052 225.797 22.9816 229.39 21.6818C230.112 21.4136 230.917 21.8056 231.165 22.5277C231.433 23.2498 231.041 24.0545 230.319 24.302C226.768 25.5812 223.238 26.9635 219.749 28.4903C216.26 29.9964 212.812 31.6264 209.447 33.3388C208.766 33.6895 207.919 33.4213 207.569 32.7405C207.218 32.0596 207.486 31.2137 208.167 30.863C211.574 29.1092 215.062 27.4794 218.613 25.932H218.654Z" fill="black"/>
<path d="M206.616 31.7912C222.368 22.8576 239.853 24.3018 258.309 33.9369C276.703 43.5513 296.212 61.3566 316.237 85.4752C356.328 133.692 398.938 207.451 439.607 292.434C480.297 377.437 509.158 458.995 521.358 523.036C527.448 555.036 529.41 582.765 526.54 604.367C523.671 625.948 515.97 641.731 502.448 649.406C486.47 658.464 468.881 657.102 450.384 647.487C431.948 637.893 412.481 620.068 392.476 595.928C352.488 547.65 310.126 473.746 269.457 388.784C228.767 303.802 198.874 222.822 186.158 159.09C179.799 127.234 177.714 99.5668 180.79 77.8415C183.845 56.1161 192.103 40.0645 206.637 31.8118L206.616 31.7912ZM257.009 36.4127C239.131 27.0664 222.677 25.8904 207.999 34.2257C194.518 41.8595 186.529 56.9208 183.536 78.2129C180.542 99.5049 182.545 126.801 188.883 158.533C201.538 221.955 231.348 302.688 271.976 387.567C312.624 472.467 354.883 546.123 394.644 594.154C414.524 618.169 433.724 635.686 451.684 645.011C469.603 654.316 486.16 655.451 501.086 646.992L501.664 646.662C513.72 639.503 521.028 624.916 523.795 604.016C526.602 582.827 524.703 555.449 518.633 523.572C506.495 459.861 477.737 378.53 437.109 293.651C396.461 208.751 353.995 135.219 314.111 87.2702C294.168 63.2753 274.949 45.7796 257.029 36.4333L257.009 36.4127Z" fill="black"/>
<path d="M134.952 510.374C135.716 510.291 136.397 510.848 136.48 511.612C136.562 512.375 136.005 513.056 135.241 513.139C127.293 513.984 119.675 514.521 112.47 514.707C111.707 514.707 111.067 514.108 111.046 513.345C111.046 512.581 111.645 511.942 112.409 511.921C119.551 511.736 127.066 511.22 134.952 510.374ZM63.048 507.031C63.2958 506.309 64.101 505.917 64.8235 506.165C71.2646 508.393 78.5725 509.961 86.6651 510.91C87.4289 510.993 87.9864 511.694 87.8832 512.458C87.8006 513.221 87.0987 513.778 86.3348 513.675C78.0771 512.705 70.5626 511.096 63.8945 508.785C63.172 508.538 62.7798 507.733 63.0275 507.011L63.048 507.031ZM182.805 502.348C183.549 502.183 184.292 502.658 184.457 503.421C184.622 504.164 184.147 504.927 183.384 505.071C175.725 506.743 168.272 508.228 161.046 509.466C160.283 509.59 159.56 509.095 159.436 508.331C159.312 507.568 159.808 506.846 160.572 506.722C167.756 505.484 175.167 504.019 182.805 502.348ZM229.916 490.237C230.659 490.031 231.423 490.444 231.65 491.186C231.856 491.929 231.443 492.692 230.7 492.919C223.227 495.106 215.898 497.128 208.714 499.006C207.971 499.191 207.207 498.758 207.001 498.015C206.815 497.273 207.248 496.509 207.991 496.324C215.155 494.446 222.463 492.424 229.895 490.258L229.916 490.237ZM31.0701 473.525C31.8133 473.34 32.5772 473.773 32.7836 474.516C33.6713 477.899 35.0132 481.221 36.7886 484.502C38.564 487.72 40.7522 490.65 43.3121 493.291C43.8489 493.848 43.849 494.714 43.2916 495.271C42.7342 495.828 41.8671 495.808 41.3097 495.251C38.564 492.445 36.2312 489.309 34.3319 485.863C32.4326 482.418 31.0288 478.869 30.0585 475.258C29.8727 474.516 30.3062 473.752 31.0494 473.546L31.0701 473.525ZM276.2 475.423C276.923 475.176 277.728 475.547 277.976 476.29C278.223 477.012 277.831 477.817 277.108 478.064C269.821 480.581 262.616 482.995 255.515 485.286C254.771 485.513 253.987 485.121 253.76 484.378C253.533 483.635 253.925 482.851 254.668 482.624C261.749 480.334 268.933 477.941 276.2 475.423ZM308.983 463.478C309.706 463.189 310.511 463.56 310.8 464.262C311.089 464.984 310.717 465.788 310.015 466.077C302.852 468.883 308.612 466.676 301.593 469.275C300.87 469.543 300.065 469.172 299.797 468.45C299.528 467.728 299.9 466.923 300.622 466.655C307.621 464.055 301.861 466.263 309.004 463.478H308.983ZM39.8439 428.94C40.2361 428.28 41.1032 428.073 41.7638 428.465C42.4244 428.857 42.6309 429.724 42.2387 430.384C38.1099 437.172 35.1164 443.795 33.341 450.211C33.1346 450.954 32.3707 451.387 31.6275 451.181C30.8843 450.975 30.4509 450.211 30.6573 449.469C32.5153 442.763 35.6325 435.893 39.8646 428.94H39.8439ZM70.7896 392.483C71.347 391.947 72.2348 391.988 72.7715 392.545C73.3083 393.102 73.2671 393.989 72.7097 394.526C67.0325 399.849 61.8714 405.11 57.2883 410.309C56.7722 410.887 55.9051 410.949 55.3271 410.433C54.7491 409.917 54.6871 409.051 55.2032 408.473C59.8482 403.191 65.0712 397.868 70.8103 392.504L70.7896 392.483ZM496.392 378.165C497.073 377.793 497.92 378.062 498.271 378.743C498.642 379.423 498.374 380.269 497.693 380.62C491.231 384.066 486.854 385.964 480.166 389.409C479.484 389.76 478.638 389.492 478.287 388.811C477.936 388.13 478.204 387.284 478.886 386.933C485.554 383.508 489.93 381.59 496.371 378.165H496.392ZM107.743 362.278C108.362 361.824 109.229 361.969 109.683 362.588C110.138 363.207 109.993 364.073 109.374 364.527C103.201 369.025 97.3382 373.523 91.8262 377.979C91.2275 378.454 90.3399 378.371 89.865 377.773C89.3902 377.174 89.4728 376.287 90.0714 375.813C95.6454 371.336 101.529 366.817 107.722 362.278H107.743ZM537.949 354.995C538.609 354.603 539.477 354.83 539.848 355.49C540.24 356.151 540.013 357.017 539.352 357.389C533.077 361.061 526.636 364.754 520.029 368.427C519.348 368.798 518.502 368.571 518.13 367.89C517.759 367.209 517.986 366.363 518.667 365.992C525.253 362.32 531.673 358.647 537.928 354.975L537.949 354.995ZM147.318 335.622C147.979 335.209 148.825 335.416 149.238 336.055C149.651 336.715 149.444 337.561 148.804 337.974C142.384 341.997 136.149 346.02 130.163 350.023C129.523 350.456 128.656 350.271 128.222 349.631C127.788 348.991 127.974 348.125 128.614 347.692C134.642 343.668 140.877 339.624 147.318 335.601V335.622ZM578.35 329.845C578.99 329.412 579.857 329.597 580.29 330.237C580.724 330.877 580.538 331.743 579.898 332.176C573.87 336.2 567.615 340.223 561.153 344.246C560.492 344.659 559.646 344.452 559.233 343.792C558.82 343.132 559.027 342.286 559.687 341.873C566.128 337.85 572.363 333.848 578.37 329.845H578.35ZM188.318 311.359C188.999 310.987 189.845 311.214 190.217 311.895C190.588 312.576 190.361 313.422 189.68 313.794C183.115 317.466 176.715 321.159 170.46 324.832C169.8 325.224 168.933 324.997 168.54 324.336C168.148 323.676 168.375 322.81 169.036 322.418C175.312 318.725 181.732 315.031 188.318 311.338V311.359ZM616.748 301.951C617.347 301.476 618.234 301.559 618.709 302.157C619.184 302.755 619.101 303.643 618.503 304.117C612.929 308.594 607.024 313.113 600.81 317.631C600.191 318.085 599.324 317.94 598.87 317.321C598.416 316.703 598.56 315.836 599.18 315.382C605.373 310.884 611.236 306.407 616.768 301.951H616.748ZM227.459 289.737C228.14 289.386 228.987 289.654 229.338 290.335C229.689 291.016 229.42 291.862 228.739 292.213C222.071 295.637 218.376 298.154 211.935 301.6C211.253 301.971 210.407 301.703 210.056 301.022C209.684 300.342 209.953 299.496 210.634 299.145C217.075 295.699 220.791 293.182 227.48 289.737H227.459ZM651.348 269.6C651.864 269.022 652.731 268.96 653.309 269.476C653.887 269.992 653.949 270.859 653.433 271.436C648.788 276.718 643.565 282.062 637.805 287.426C637.248 287.962 636.36 287.921 635.823 287.364C635.287 286.807 635.328 285.92 635.885 285.383C641.583 280.06 646.724 274.779 651.327 269.579L651.348 269.6ZM675.151 229.574C675.357 228.831 676.121 228.378 676.864 228.584C677.607 228.79 678.041 229.554 677.855 230.296C676.059 237.043 672.983 243.934 668.772 250.908C668.379 251.568 667.512 251.774 666.852 251.382C666.191 250.99 665.984 250.124 666.377 249.463C670.485 242.655 673.416 236.011 675.151 229.574ZM406.424 211.005C407.147 210.737 407.952 211.109 408.22 211.831C408.489 212.553 408.117 213.358 407.395 213.626C400.396 216.163 406.631 213.77 399.508 216.514C398.786 216.782 397.981 216.432 397.712 215.71C397.444 214.987 397.795 214.183 398.517 213.915C405.66 211.171 399.446 213.543 406.465 211.005H406.424ZM664.725 184.679C665.262 184.122 666.15 184.102 666.707 184.638C669.597 187.382 671.992 190.477 673.871 193.902C675.77 197.368 677.194 200.896 678.165 204.506C678.371 205.249 677.917 206.013 677.174 206.219C676.43 206.425 675.667 205.971 675.46 205.229C674.552 201.845 673.21 198.523 671.414 195.243C669.68 192.086 667.45 189.218 664.766 186.66C664.209 186.123 664.189 185.236 664.725 184.679ZM452.44 195.428C453.184 195.201 453.968 195.614 454.195 196.336C454.422 197.079 454.009 197.863 453.287 198.09C446.206 200.298 439.042 202.629 431.775 205.084C431.053 205.332 430.248 204.94 430 204.218C429.752 203.496 430.144 202.691 430.867 202.443C438.154 199.988 445.339 197.657 452.44 195.428ZM499.199 182.183C499.943 181.997 500.707 182.451 500.892 183.194C501.078 183.937 500.624 184.7 499.881 184.886C492.738 186.68 485.43 188.641 477.998 190.724C477.255 190.931 476.491 190.497 476.284 189.755C476.078 189.012 476.511 188.249 477.255 188.042C484.707 185.938 492.036 183.978 499.22 182.183H499.199ZM546.743 172.114C547.507 171.991 548.23 172.506 548.354 173.249C548.477 174.013 547.961 174.735 547.197 174.858C540.034 176.055 532.623 177.458 525.025 179.067C524.262 179.232 523.539 178.737 523.374 177.994C523.209 177.231 523.704 176.509 524.447 176.344C532.086 174.735 539.518 173.332 546.723 172.114H546.743ZM621.186 167.72C629.444 168.545 636.959 169.948 643.627 172.011C644.37 172.238 644.783 173.022 644.556 173.765C644.329 174.508 643.544 174.92 642.822 174.693C636.36 172.713 629.031 171.33 620.918 170.526C620.154 170.443 619.597 169.762 619.659 168.999C619.741 168.236 620.423 167.679 621.186 167.74V167.72ZM595.175 166.977C595.938 166.956 596.579 167.555 596.62 168.318C596.641 169.082 596.042 169.721 595.278 169.762C588.156 169.989 580.662 170.505 572.796 171.33C572.033 171.413 571.351 170.856 571.269 170.093C571.186 169.329 571.743 168.648 572.507 168.566C580.435 167.74 588.011 167.204 595.195 166.977H595.175Z" fill="black"/>
<path d="M706.839 340.426C706.839 154.017 549.282 2.78531 354.834 2.78531C160.365 2.78531 2.82825 153.996 2.82825 340.426C2.82825 526.835 160.385 678.066 354.834 678.066C549.282 678.066 706.839 526.855 706.839 340.426ZM709.626 340.426C709.626 528.485 550.727 680.852 354.813 680.852C158.899 680.852 0 528.485 0 340.426C0 152.366 158.899 0 354.813 0C550.706 0 709.626 152.366 709.626 340.426Z" fill="black"/>
<path d="M451.749 663.606C452.513 663.462 453.235 663.957 453.38 664.72C453.524 665.483 453.029 666.206 452.265 666.35C444.709 667.774 437.071 668.723 429.371 669.197C428.607 669.238 427.946 668.661 427.884 667.897C427.843 667.134 428.421 666.474 429.185 666.412C436.782 665.937 444.296 664.988 451.749 663.606ZM376.583 664.184C376.728 663.42 377.45 662.925 378.214 663.07C385.749 664.493 393.284 665.504 400.778 666.123C401.542 666.185 402.12 666.866 402.058 667.629C401.996 668.393 401.315 668.97 400.551 668.908C392.954 668.289 385.316 667.258 377.698 665.814C376.934 665.669 376.439 664.947 376.583 664.184ZM500.036 647.142C500.717 646.791 501.564 647.059 501.915 647.74C502.266 648.421 501.997 649.267 501.316 649.618C497.91 651.351 494.421 653.001 490.87 654.549C487.319 656.075 483.727 657.499 480.135 658.799C479.412 659.067 478.607 658.675 478.359 657.953C478.091 657.231 478.483 656.426 479.206 656.178C482.757 654.899 486.287 653.517 489.776 651.99C493.265 650.484 496.712 648.854 500.077 647.142H500.036ZM327.388 648.999C327.677 648.297 328.503 647.946 329.205 648.256C336.306 651.227 343.449 653.847 350.613 656.117C351.356 656.344 351.748 657.128 351.521 657.87C351.294 658.613 350.509 659.005 349.766 658.778C342.52 656.488 335.315 653.827 328.131 650.835C327.429 650.546 327.078 649.721 327.388 649.019V648.999ZM281.929 624.839C282.342 624.199 283.209 623.993 283.849 624.406C290.331 628.532 296.896 632.39 303.503 635.959C304.184 636.331 304.431 637.177 304.06 637.857C303.688 638.538 302.842 638.786 302.161 638.414C295.492 634.825 288.886 630.925 282.342 626.758C281.702 626.345 281.496 625.478 281.909 624.839H281.929ZM541.717 617.741C542.274 617.205 543.162 617.246 543.699 617.803C544.235 618.36 544.194 619.248 543.637 619.784C538.021 625.066 532.097 629.976 525.883 634.515C525.263 634.969 524.396 634.825 523.942 634.206C523.488 633.587 523.632 632.72 524.252 632.266C530.362 627.81 536.205 622.961 541.758 617.762L541.717 617.741ZM240.827 593.788C241.343 593.21 242.21 593.148 242.788 593.643C248.609 598.698 254.514 603.505 260.48 608.065C261.099 608.539 261.202 609.406 260.748 610.025C260.273 610.644 259.406 610.747 258.787 610.293C252.759 605.692 246.813 600.844 240.95 595.748C240.372 595.253 240.31 594.365 240.806 593.788H240.827ZM574.19 578.334C574.603 577.695 575.47 577.489 576.11 577.901C576.75 578.314 576.956 579.18 576.543 579.82C572.373 586.36 567.914 592.632 563.145 598.595C562.671 599.193 561.783 599.296 561.184 598.822C560.586 598.347 560.482 597.46 560.957 596.862C565.643 590.982 570.061 584.792 574.17 578.334H574.19ZM204.389 557.373C204.967 556.857 205.855 556.919 206.351 557.496C211.45 563.253 216.652 568.803 221.937 574.146C222.474 574.703 222.474 575.57 221.937 576.127C221.38 576.663 220.512 576.663 219.955 576.127C214.608 570.742 209.385 565.151 204.245 559.374C203.729 558.796 203.791 557.909 204.369 557.414L204.389 557.373ZM596.899 532.47C597.167 531.748 597.972 531.376 598.695 531.645C599.417 531.913 599.789 532.717 599.521 533.44C596.795 540.723 593.781 547.799 590.499 554.649C590.169 555.351 589.322 555.64 588.641 555.309C587.939 554.979 587.65 554.154 587.98 553.452C591.222 546.685 594.194 539.691 596.919 532.47H596.899ZM172.762 516.686C173.402 516.253 174.269 516.398 174.703 517.037C179.079 523.351 183.559 529.499 188.184 535.462C188.658 536.081 188.534 536.947 187.936 537.421C187.316 537.896 186.45 537.772 185.975 537.174C181.33 531.17 176.809 524.98 172.411 518.626C171.978 517.986 172.143 517.12 172.762 516.686ZM610.565 483.118C610.71 482.355 611.432 481.86 612.196 482.004C612.96 482.149 613.456 482.871 613.311 483.634C611.866 491.247 610.173 498.737 608.233 506.061C608.026 506.804 607.262 507.258 606.519 507.051C605.776 506.845 605.322 506.082 605.528 505.339C607.448 498.097 609.12 490.67 610.545 483.118H610.565ZM146.028 472.638C146.709 472.266 147.556 472.534 147.907 473.215C151.54 479.982 155.297 486.605 159.199 493.063C159.591 493.723 159.385 494.59 158.724 494.982C158.064 495.374 157.197 495.167 156.804 494.507C152.882 488.008 149.104 481.344 145.45 474.536C145.078 473.855 145.347 473.009 146.028 472.658V472.638ZM617.688 430.796C618.451 430.817 619.05 431.477 619.03 432.24C618.74 439.998 618.204 447.652 617.419 455.183C617.337 455.946 616.655 456.503 615.892 456.421C615.128 456.338 614.57 455.657 614.653 454.894C615.417 447.405 615.953 439.812 616.242 432.116C616.263 431.353 616.924 430.755 617.688 430.775V430.796ZM124.269 425.886C124.992 425.597 125.797 425.948 126.086 426.649C127.51 430.177 128.997 433.684 130.504 437.212C132.031 440.72 133.579 444.207 135.169 447.652C135.499 448.354 135.169 449.179 134.488 449.509C133.786 449.839 132.96 449.509 132.63 448.828C131.02 445.362 129.451 441.855 127.923 438.327C126.395 434.799 124.909 431.25 123.484 427.701C123.195 426.979 123.546 426.174 124.248 425.886H124.269ZM616.057 379.319C616.82 379.258 617.502 379.815 617.584 380.578C618.307 388.274 618.782 395.908 619.05 403.479C619.071 404.243 618.472 404.903 617.708 404.924C616.944 404.944 616.284 404.346 616.263 403.583C615.995 396.073 615.499 388.48 614.797 380.826C614.735 380.062 615.293 379.382 616.057 379.299V379.319ZM107.712 377.112C108.455 376.906 109.219 377.339 109.426 378.082C111.47 385.344 113.72 392.627 116.176 399.91C116.424 400.632 116.032 401.437 115.309 401.684C114.587 401.932 113.782 401.54 113.534 400.797C111.077 393.473 108.806 386.149 106.742 378.845C106.536 378.102 106.969 377.339 107.712 377.133V377.112ZM608.047 328.441C608.81 328.276 609.533 328.751 609.698 329.514C611.329 337.066 612.733 344.596 613.951 352.086C614.075 352.849 613.559 353.571 612.795 353.695C612.031 353.819 611.308 353.303 611.205 352.539C610.008 345.091 608.604 337.623 606.973 330.113C606.808 329.349 607.283 328.627 608.047 328.462V328.441ZM96.7089 326.791C97.4728 326.667 98.1952 327.183 98.2984 327.946C99.4958 335.394 100.9 342.863 102.53 350.373C102.696 351.136 102.221 351.859 101.457 352.024C100.714 352.189 99.9707 351.714 99.8056 350.951C98.1747 343.399 96.7707 335.869 95.5527 328.379C95.4289 327.616 95.9451 326.894 96.7089 326.77V326.791ZM594.215 278.822C594.938 278.574 595.743 278.966 595.99 279.709C598.447 287.033 600.718 294.358 602.782 301.661C602.989 302.404 602.555 303.167 601.812 303.374C601.069 303.58 600.305 303.147 600.099 302.404C598.055 295.142 595.805 287.858 593.348 280.575C593.1 279.853 593.493 279.049 594.236 278.801L594.215 278.822ZM91.7956 275.521C92.5594 275.5 93.2199 276.098 93.2406 276.862C93.5089 284.372 94.0045 291.964 94.7064 299.619C94.7683 300.382 94.2109 301.063 93.4471 301.145C92.6832 301.207 92.002 300.65 91.9194 299.887C91.1969 292.191 90.722 284.557 90.4536 276.986C90.433 276.222 91.0317 275.562 91.7956 275.541V275.521ZM575.016 230.956C575.718 230.626 576.544 230.956 576.874 231.637C578.484 235.103 580.053 238.61 581.581 242.138C583.108 245.666 584.595 249.215 586.019 252.764C586.308 253.486 585.957 254.29 585.256 254.579C584.533 254.868 583.728 254.517 583.439 253.816C582.014 250.288 580.528 246.78 579.021 243.252C577.493 239.745 575.945 236.258 574.355 232.813C574.025 232.111 574.355 231.286 575.036 230.956H575.016ZM93.6123 224.044C94.3761 224.127 94.9335 224.807 94.8509 225.571C94.087 233.06 93.5503 240.653 93.2612 248.348C93.2406 249.112 92.5799 249.71 91.8161 249.69C91.0523 249.669 90.4537 249.009 90.4743 248.245C90.7633 240.488 91.3 232.833 92.0845 225.303C92.1671 224.539 92.8484 223.982 93.6123 224.065V224.044ZM550.759 185.483C551.419 185.091 552.287 185.298 552.679 185.958C556.601 192.457 560.379 199.121 564.033 205.929C564.405 206.61 564.136 207.456 563.455 207.807C562.774 208.178 561.927 207.91 561.556 207.229C557.922 200.462 554.165 193.839 550.263 187.381C549.871 186.721 550.078 185.855 550.738 185.463L550.759 185.483ZM101.271 174.425C101.478 173.682 102.242 173.228 102.985 173.434C103.728 173.64 104.182 174.404 103.976 175.147C102.056 182.388 100.384 189.816 98.9591 197.367C98.8146 198.131 98.0921 198.626 97.3282 198.481C96.5644 198.337 96.0688 197.615 96.2133 196.851C97.6584 189.238 99.3513 181.749 101.292 174.425H101.271ZM521.588 143.043C522.208 142.569 523.075 142.693 523.55 143.291C528.195 149.295 532.716 155.484 537.113 161.839C537.546 162.479 537.402 163.345 536.762 163.778C536.122 164.212 535.255 164.067 534.821 163.428C530.445 157.114 525.965 150.966 521.341 145.003C520.866 144.385 520.99 143.518 521.588 143.043ZM119.025 125.816C119.356 125.114 120.202 124.826 120.883 125.156C121.585 125.486 121.874 126.311 121.544 127.012C118.303 133.78 115.33 140.774 112.605 147.995C112.337 148.717 111.531 149.089 110.809 148.82C110.086 148.552 109.715 147.748 109.983 147.025C112.708 139.742 115.722 132.666 119.005 125.816H119.025ZM487.567 104.379C488.124 103.843 488.991 103.843 489.548 104.379C494.895 109.764 500.119 115.355 505.259 121.132C505.775 121.71 505.713 122.597 505.135 123.092C504.557 123.608 503.669 123.546 503.174 122.969C498.075 117.212 492.872 111.662 487.587 106.319C487.051 105.762 487.051 104.895 487.587 104.338L487.567 104.379ZM146.358 81.8699C146.833 81.2716 147.721 81.1685 148.32 81.643C148.918 82.1176 149.021 83.0047 148.547 83.603C143.86 89.4831 139.442 95.6727 135.334 102.13C134.921 102.77 134.054 102.976 133.414 102.564C132.774 102.151 132.568 101.285 132.981 100.645C137.151 94.1047 141.61 87.8326 146.379 81.8699H146.358ZM448.756 70.4399C449.23 69.821 450.097 69.7178 450.717 70.1717C456.745 74.7726 462.69 79.6211 468.553 84.7171C469.131 85.2329 469.193 86.0995 468.698 86.6772C468.202 87.2549 467.315 87.3167 466.737 86.8216C460.915 81.7668 455.011 76.9596 449.045 72.3999C448.425 71.9254 448.322 71.0589 448.776 70.4399H448.756ZM183.642 45.9499C184.261 45.496 185.128 45.6404 185.582 46.2594C186.037 46.8783 185.892 47.7448 185.273 48.1987C179.162 52.6552 173.32 57.5038 167.766 62.703C167.209 63.2394 166.321 63.1981 165.785 62.641C165.248 62.084 165.289 61.1968 165.847 60.6604C171.462 55.3786 177.387 50.4683 183.601 45.9293L183.642 45.9499ZM405.444 42.6075C405.815 41.9267 406.662 41.6791 407.343 42.0505C414.011 45.6404 420.617 49.5398 427.162 53.7075C427.802 54.1201 428.008 54.9866 427.595 55.6262C427.182 56.2658 426.315 56.4722 425.675 56.0595C419.193 51.9332 412.628 48.075 406.022 44.5057C405.341 44.1343 405.093 43.2884 405.465 42.6075H405.444ZM229.41 21.6868C230.133 21.4186 230.938 21.8106 231.186 22.5327C231.454 23.2549 231.062 24.0595 230.339 24.3071C226.788 25.5862 223.258 26.9686 219.769 28.4953C216.28 30.0014 212.833 31.6314 209.468 33.3438C208.787 33.6946 207.94 33.4263 207.589 32.7455C207.238 32.0646 207.507 31.2187 208.188 30.868C211.594 29.1349 215.083 27.4843 218.634 25.9576C222.185 24.4308 225.777 23.0072 229.369 21.7074L229.41 21.6868ZM357.962 22.6152C358.189 21.8725 358.974 21.4805 359.717 21.7074C366.963 23.9976 374.168 26.6591 381.352 29.6507C382.054 29.9395 382.405 30.7648 382.095 31.4663C381.806 32.1678 380.98 32.5185 380.279 32.209C373.177 29.238 366.034 26.6178 358.87 24.3483C358.127 24.1213 357.735 23.3374 357.962 22.5946V22.6152ZM308.953 11.5566C316.55 12.1755 324.188 13.2071 331.806 14.6514C332.57 14.7958 333.065 15.5179 332.921 16.2813C332.776 17.0447 332.053 17.5398 331.29 17.3954C323.754 15.9718 316.219 14.9609 308.725 14.3419C307.962 14.28 307.384 13.5991 307.445 12.8357C307.507 12.0724 308.189 11.4947 308.953 11.5566ZM280.133 11.2677C280.897 11.2264 281.558 11.8041 281.62 12.5675C281.661 13.3309 281.083 13.9911 280.319 14.053C272.722 14.5276 265.207 15.456 257.755 16.859C256.991 17.0034 256.268 16.5082 256.124 15.7448C255.979 14.9815 256.475 14.2593 257.239 14.1149C264.794 12.6913 272.433 11.7422 280.133 11.2677Z" fill="black"/>
</svg>
